<svg xmlns="http://www.w3.org/2000/svg" width="162.004" height="49.001" viewBox="0 0 162.004 49.001">
  <defs>
    <style>
      .cls-1 {
        fill: none;
        stroke-linecap: round;
        stroke-linejoin: round;
        stroke-width: 3px;
      }

      .cls-1, .cls-2 {
        stroke: #8d93ab;
      }

      .cls-2 {
        fill: #8d93ab;
      }
    </style>
  </defs>
  <g id="app_logo" data-name="app logo" transform="translate(-1239.5 1864.121)">
    <g id="Icon_feather-send" data-name="Icon feather-send" transform="translate(1241 -1862)">
      <path id="Path_1" data-name="Path 1" class="cls-1" d="M41.459,3,16.5,27.959" transform="translate(3.921 -3)"/>
      <path id="Path_2" data-name="Path 2" class="cls-1" d="M48.379,3,32.5,48.379,23.421,27.959,3,18.883Z" transform="translate(-3 -3)"/>
    </g>
    <path id="Path_3" data-name="Path 3" class="cls-2" d="M21.868-14.58l-.787,3.751L6.713,3.693H18l-.817,3.782H.6l.782-3.728L15.774-10.8H4.472l.817-3.782Zm7.262,0-.8,3.782H24.057l.835-3.782ZM27.9-8.923l-3.455,16.4H20.2l3.455-16.4Zm9.643-5.657L32.85,7.474H28.613L33.3-14.58Zm11.5,0-.666,3.146a7.487,7.487,0,0,0-2.087.151,1.368,1.368,0,0,0-.575,1.059q-.091.514-.333,1.634h2.511l-.6,2.814h-2.5L41.958,7.474H37.72L40.547-5.776H38.235l.607-2.814h2.305q.089-.484.355-1.664.938-4.326,4.84-4.326ZM72.511-4.355,70,7.474H65.763L68.185-3.931a1.063,1.063,0,0,0-.333-1,2.152,2.152,0,0,0-1.724-.635,3.385,3.385,0,0,0-2.1.862A3.328,3.328,0,0,0,62.74-2.842L60.561,7.474H56.325L58.664-3.6a1.357,1.357,0,0,0,.052-.368q0-1.594-2.071-1.594a3.35,3.35,0,0,0-2.163.824A3.264,3.264,0,0,0,53.263-2.85L51.122,7.474H46.887L50.3-8.923h4.33L54.1-6.531a10.817,10.817,0,0,1,2.54-2.089,4.97,4.97,0,0,1,2.359-.575A4.317,4.317,0,0,1,63.107-6.8a6.619,6.619,0,0,1,5.08-2.39q4.475,0,4.475,3.57A6.024,6.024,0,0,1,72.511-4.355Zm16.79.393L87.4,5.084A1.938,1.938,0,0,0,87.94,6.93l-.121.545H83.312a4.346,4.346,0,0,1-.121-1.6A8.855,8.855,0,0,1,77.473,8.2q-3.963,0-3.963-3.509a7.125,7.125,0,0,1,.182-1.543A6.465,6.465,0,0,1,75.612-.27a6.393,6.393,0,0,1,3.555-1.724q.968-.091,3.267-.424a5.58,5.58,0,0,0,2-.605,2.31,2.31,0,0,0,1-1.452,1.356,1.356,0,0,0,.061-.363q0-1.3-2.329-1.3a3.252,3.252,0,0,0-3.509,2.662H75.627a7.38,7.38,0,0,1,2.6-4.266,8.947,8.947,0,0,1,5.415-1.452q5.809,0,5.809,3.872A6.693,6.693,0,0,1,89.3-3.961ZM84.522-.3a6.515,6.515,0,0,1-2,.635A11.618,11.618,0,0,0,79.439,1a2.4,2.4,0,0,0-1.452,1.815,2.26,2.26,0,0,0-.061.484q0,1.392,2,1.392,3.419,0,4.447-4.356ZM99.74-14.58l-.8,3.782H94.668L95.5-14.58ZM98.507-8.923l-3.455,16.4H90.814l3.455-16.4Zm9.643-5.657L103.46,7.474H99.223l4.689-22.054Z" transform="translate(1292.738 -1834.683)"/>
  </g>
</svg>
