<svg xmlns="http://www.w3.org/2000/svg" width="610" height="430" viewBox="0 0 610 430">
  <defs>
    <style>
      .cls-1 {
        fill: #d6e0f0;
      }
    </style>
  </defs>
  <g id="circle_patterns" data-name="circle patterns" transform="translate(-236 -1714)">
    <circle id="Ellipse_20" data-name="Ellipse 20" class="cls-1" cx="5" cy="5" r="5" transform="translate(236 1714)"/>
    <circle id="Ellipse_20-2" data-name="Ellipse 20" class="cls-1" cx="5" cy="5" r="5" transform="translate(296 1714)"/>
    <circle id="Ellipse_20-3" data-name="Ellipse 20" class="cls-1" cx="5" cy="5" r="5" transform="translate(356 1714)"/>
    <circle id="Ellipse_20-4" data-name="Ellipse 20" class="cls-1" cx="5" cy="5" r="5" transform="translate(416 1714)"/>
    <circle id="Ellipse_20-5" data-name="Ellipse 20" class="cls-1" cx="5" cy="5" r="5" transform="translate(476 1714)"/>
    <circle id="Ellipse_20-6" data-name="Ellipse 20" class="cls-1" cx="5" cy="5" r="5" transform="translate(536 1714)"/>
    <circle id="Ellipse_20-7" data-name="Ellipse 20" class="cls-1" cx="5" cy="5" r="5" transform="translate(596 1714)"/>
    <circle id="Ellipse_20-8" data-name="Ellipse 20" class="cls-1" cx="5" cy="5" r="5" transform="translate(656 1714)"/>
    <circle id="Ellipse_20-9" data-name="Ellipse 20" class="cls-1" cx="5" cy="5" r="5" transform="translate(716 1714)"/>
    <circle id="Ellipse_20-10" data-name="Ellipse 20" class="cls-1" cx="5" cy="5" r="5" transform="translate(776 1714)"/>
    <circle id="Ellipse_20-11" data-name="Ellipse 20" class="cls-1" cx="5" cy="5" r="5" transform="translate(836 1714)"/>
    <circle id="Ellipse_20-12" data-name="Ellipse 20" class="cls-1" cx="5" cy="5" r="5" transform="translate(236 1774)"/>
    <circle id="Ellipse_20-13" data-name="Ellipse 20" class="cls-1" cx="5" cy="5" r="5" transform="translate(296 1774)"/>
    <circle id="Ellipse_20-14" data-name="Ellipse 20" class="cls-1" cx="5" cy="5" r="5" transform="translate(356 1774)"/>
    <circle id="Ellipse_20-15" data-name="Ellipse 20" class="cls-1" cx="5" cy="5" r="5" transform="translate(416 1774)"/>
    <circle id="Ellipse_20-16" data-name="Ellipse 20" class="cls-1" cx="5" cy="5" r="5" transform="translate(476 1774)"/>
    <circle id="Ellipse_20-17" data-name="Ellipse 20" class="cls-1" cx="5" cy="5" r="5" transform="translate(536 1774)"/>
    <circle id="Ellipse_20-18" data-name="Ellipse 20" class="cls-1" cx="5" cy="5" r="5" transform="translate(596 1774)"/>
    <circle id="Ellipse_20-19" data-name="Ellipse 20" class="cls-1" cx="5" cy="5" r="5" transform="translate(656 1774)"/>
    <circle id="Ellipse_20-20" data-name="Ellipse 20" class="cls-1" cx="5" cy="5" r="5" transform="translate(716 1774)"/>
    <circle id="Ellipse_20-21" data-name="Ellipse 20" class="cls-1" cx="5" cy="5" r="5" transform="translate(776 1774)"/>
    <circle id="Ellipse_20-22" data-name="Ellipse 20" class="cls-1" cx="5" cy="5" r="5" transform="translate(836 1774)"/>
    <circle id="Ellipse_20-23" data-name="Ellipse 20" class="cls-1" cx="5" cy="5" r="5" transform="translate(236 1834)"/>
    <circle id="Ellipse_20-24" data-name="Ellipse 20" class="cls-1" cx="5" cy="5" r="5" transform="translate(296 1834)"/>
    <circle id="Ellipse_20-25" data-name="Ellipse 20" class="cls-1" cx="5" cy="5" r="5" transform="translate(356 1834)"/>
    <circle id="Ellipse_20-26" data-name="Ellipse 20" class="cls-1" cx="5" cy="5" r="5" transform="translate(416 1834)"/>
    <circle id="Ellipse_20-27" data-name="Ellipse 20" class="cls-1" cx="5" cy="5" r="5" transform="translate(476 1834)"/>
    <circle id="Ellipse_20-28" data-name="Ellipse 20" class="cls-1" cx="5" cy="5" r="5" transform="translate(536 1834)"/>
    <circle id="Ellipse_20-29" data-name="Ellipse 20" class="cls-1" cx="5" cy="5" r="5" transform="translate(596 1834)"/>
    <circle id="Ellipse_20-30" data-name="Ellipse 20" class="cls-1" cx="5" cy="5" r="5" transform="translate(656 1834)"/>
    <circle id="Ellipse_20-31" data-name="Ellipse 20" class="cls-1" cx="5" cy="5" r="5" transform="translate(716 1834)"/>
    <circle id="Ellipse_20-32" data-name="Ellipse 20" class="cls-1" cx="5" cy="5" r="5" transform="translate(776 1834)"/>
    <circle id="Ellipse_20-33" data-name="Ellipse 20" class="cls-1" cx="5" cy="5" r="5" transform="translate(836 1834)"/>
    <circle id="Ellipse_20-34" data-name="Ellipse 20" class="cls-1" cx="5" cy="5" r="5" transform="translate(236 1894)"/>
    <circle id="Ellipse_20-35" data-name="Ellipse 20" class="cls-1" cx="5" cy="5" r="5" transform="translate(296 1894)"/>
    <circle id="Ellipse_20-36" data-name="Ellipse 20" class="cls-1" cx="5" cy="5" r="5" transform="translate(356 1894)"/>
    <circle id="Ellipse_20-37" data-name="Ellipse 20" class="cls-1" cx="5" cy="5" r="5" transform="translate(416 1894)"/>
    <circle id="Ellipse_20-38" data-name="Ellipse 20" class="cls-1" cx="5" cy="5" r="5" transform="translate(476 1894)"/>
    <circle id="Ellipse_20-39" data-name="Ellipse 20" class="cls-1" cx="5" cy="5" r="5" transform="translate(536 1894)"/>
    <circle id="Ellipse_20-40" data-name="Ellipse 20" class="cls-1" cx="5" cy="5" r="5" transform="translate(596 1894)"/>
    <circle id="Ellipse_20-41" data-name="Ellipse 20" class="cls-1" cx="5" cy="5" r="5" transform="translate(656 1894)"/>
    <circle id="Ellipse_20-42" data-name="Ellipse 20" class="cls-1" cx="5" cy="5" r="5" transform="translate(716 1894)"/>
    <circle id="Ellipse_20-43" data-name="Ellipse 20" class="cls-1" cx="5" cy="5" r="5" transform="translate(776 1894)"/>
    <circle id="Ellipse_20-44" data-name="Ellipse 20" class="cls-1" cx="5" cy="5" r="5" transform="translate(836 1894)"/>
    <circle id="Ellipse_20-45" data-name="Ellipse 20" class="cls-1" cx="5" cy="5" r="5" transform="translate(236 1954)"/>
    <circle id="Ellipse_20-46" data-name="Ellipse 20" class="cls-1" cx="5" cy="5" r="5" transform="translate(296 1954)"/>
    <circle id="Ellipse_20-47" data-name="Ellipse 20" class="cls-1" cx="5" cy="5" r="5" transform="translate(356 1954)"/>
    <circle id="Ellipse_20-48" data-name="Ellipse 20" class="cls-1" cx="5" cy="5" r="5" transform="translate(416 1954)"/>
    <circle id="Ellipse_20-49" data-name="Ellipse 20" class="cls-1" cx="5" cy="5" r="5" transform="translate(476 1954)"/>
    <circle id="Ellipse_20-50" data-name="Ellipse 20" class="cls-1" cx="5" cy="5" r="5" transform="translate(536 1954)"/>
    <circle id="Ellipse_20-51" data-name="Ellipse 20" class="cls-1" cx="5" cy="5" r="5" transform="translate(596 1954)"/>
    <circle id="Ellipse_20-52" data-name="Ellipse 20" class="cls-1" cx="5" cy="5" r="5" transform="translate(656 1954)"/>
    <circle id="Ellipse_20-53" data-name="Ellipse 20" class="cls-1" cx="5" cy="5" r="5" transform="translate(716 1954)"/>
    <circle id="Ellipse_20-54" data-name="Ellipse 20" class="cls-1" cx="5" cy="5" r="5" transform="translate(776 1954)"/>
    <circle id="Ellipse_20-55" data-name="Ellipse 20" class="cls-1" cx="5" cy="5" r="5" transform="translate(836 1954)"/>
    <circle id="Ellipse_20-56" data-name="Ellipse 20" class="cls-1" cx="5" cy="5" r="5" transform="translate(236 2014)"/>
    <circle id="Ellipse_20-57" data-name="Ellipse 20" class="cls-1" cx="5" cy="5" r="5" transform="translate(296 2014)"/>
    <circle id="Ellipse_20-58" data-name="Ellipse 20" class="cls-1" cx="5" cy="5" r="5" transform="translate(356 2014)"/>
    <circle id="Ellipse_20-59" data-name="Ellipse 20" class="cls-1" cx="5" cy="5" r="5" transform="translate(416 2014)"/>
    <circle id="Ellipse_20-60" data-name="Ellipse 20" class="cls-1" cx="5" cy="5" r="5" transform="translate(476 2014)"/>
    <circle id="Ellipse_20-61" data-name="Ellipse 20" class="cls-1" cx="5" cy="5" r="5" transform="translate(536 2014)"/>
    <circle id="Ellipse_20-62" data-name="Ellipse 20" class="cls-1" cx="5" cy="5" r="5" transform="translate(596 2014)"/>
    <circle id="Ellipse_20-63" data-name="Ellipse 20" class="cls-1" cx="5" cy="5" r="5" transform="translate(656 2014)"/>
    <circle id="Ellipse_20-64" data-name="Ellipse 20" class="cls-1" cx="5" cy="5" r="5" transform="translate(716 2014)"/>
    <circle id="Ellipse_20-65" data-name="Ellipse 20" class="cls-1" cx="5" cy="5" r="5" transform="translate(776 2014)"/>
    <circle id="Ellipse_20-66" data-name="Ellipse 20" class="cls-1" cx="5" cy="5" r="5" transform="translate(836 2014)"/>
    <circle id="Ellipse_20-67" data-name="Ellipse 20" class="cls-1" cx="5" cy="5" r="5" transform="translate(236 2074)"/>
    <circle id="Ellipse_20-68" data-name="Ellipse 20" class="cls-1" cx="5" cy="5" r="5" transform="translate(296 2074)"/>
    <circle id="Ellipse_20-69" data-name="Ellipse 20" class="cls-1" cx="5" cy="5" r="5" transform="translate(356 2074)"/>
    <circle id="Ellipse_20-70" data-name="Ellipse 20" class="cls-1" cx="5" cy="5" r="5" transform="translate(416 2074)"/>
    <circle id="Ellipse_20-71" data-name="Ellipse 20" class="cls-1" cx="5" cy="5" r="5" transform="translate(476 2074)"/>
    <circle id="Ellipse_20-72" data-name="Ellipse 20" class="cls-1" cx="5" cy="5" r="5" transform="translate(536 2074)"/>
    <circle id="Ellipse_20-73" data-name="Ellipse 20" class="cls-1" cx="5" cy="5" r="5" transform="translate(596 2074)"/>
    <circle id="Ellipse_20-74" data-name="Ellipse 20" class="cls-1" cx="5" cy="5" r="5" transform="translate(656 2074)"/>
    <circle id="Ellipse_20-75" data-name="Ellipse 20" class="cls-1" cx="5" cy="5" r="5" transform="translate(716 2074)"/>
    <circle id="Ellipse_20-76" data-name="Ellipse 20" class="cls-1" cx="5" cy="5" r="5" transform="translate(776 2074)"/>
    <circle id="Ellipse_20-77" data-name="Ellipse 20" class="cls-1" cx="5" cy="5" r="5" transform="translate(836 2074)"/>
    <circle id="Ellipse_20-78" data-name="Ellipse 20" class="cls-1" cx="5" cy="5" r="5" transform="translate(236 2134)"/>
    <circle id="Ellipse_20-79" data-name="Ellipse 20" class="cls-1" cx="5" cy="5" r="5" transform="translate(296 2134)"/>
    <circle id="Ellipse_20-80" data-name="Ellipse 20" class="cls-1" cx="5" cy="5" r="5" transform="translate(356 2134)"/>
    <circle id="Ellipse_20-81" data-name="Ellipse 20" class="cls-1" cx="5" cy="5" r="5" transform="translate(416 2134)"/>
    <circle id="Ellipse_20-82" data-name="Ellipse 20" class="cls-1" cx="5" cy="5" r="5" transform="translate(476 2134)"/>
    <circle id="Ellipse_20-83" data-name="Ellipse 20" class="cls-1" cx="5" cy="5" r="5" transform="translate(536 2134)"/>
    <circle id="Ellipse_20-84" data-name="Ellipse 20" class="cls-1" cx="5" cy="5" r="5" transform="translate(596 2134)"/>
    <circle id="Ellipse_20-85" data-name="Ellipse 20" class="cls-1" cx="5" cy="5" r="5" transform="translate(656 2134)"/>
    <circle id="Ellipse_20-86" data-name="Ellipse 20" class="cls-1" cx="5" cy="5" r="5" transform="translate(716 2134)"/>
    <circle id="Ellipse_20-87" data-name="Ellipse 20" class="cls-1" cx="5" cy="5" r="5" transform="translate(776 2134)"/>
    <circle id="Ellipse_20-88" data-name="Ellipse 20" class="cls-1" cx="5" cy="5" r="5" transform="translate(836 2134)"/>
  </g>
</svg>
