<svg xmlns="http://www.w3.org/2000/svg" xmlns:xlink="http://www.w3.org/1999/xlink" width="734" height="159" viewBox="0 0 734 159">
  <defs>
    <style>
      .cls-1 {
        fill: #fff;
        stroke-width: 0.2px;
      }

      .cls-1, .cls-2, .cls-3 {
        stroke: #8d93ab;
      }

      .cls-11, .cls-2, .cls-3 {
        fill: none;
      }

      .cls-3 {
        stroke-linecap: round;
        stroke-linejoin: round;
        stroke-width: 1.5px;
      }

      .cls-4, .cls-5, .cls-7, .cls-8 {
        fill: rgba(57,59,68,0.7);
      }

      .cls-4, .cls-5, .cls-9 {
        font-size: 8px;
      }

      .cls-4, .cls-6, .cls-7, .cls-9 {
        font-family: Roboto-Regular, Roboto;
      }

      .cls-5, .cls-8 {
        font-family: Roboto-Medium, Roboto;
        font-weight: 500;
      }

      .cls-6, .cls-9 {
        fill: rgba(57,59,68,0.5);
      }

      .cls-6 {
        font-size: 6px;
      }

      .cls-7, .cls-8 {
        font-size: 10px;
      }

      .cls-10 {
        stroke: none;
      }

      .cls-12 {
        filter: url(#Rectangle_11-3);
      }

      .cls-13 {
        filter: url(#Rectangle_11-2);
      }

      .cls-14 {
        filter: url(#Rectangle_11);
      }
    </style>
    <filter id="Rectangle_11" x="82" y="0" width="570" height="56" filterUnits="userSpaceOnUse">
      <feOffset dy="3" input="SourceAlpha"/>
      <feGaussianBlur stdDeviation="3" result="blur"/>
      <feFlood flood-opacity="0.161"/>
      <feComposite operator="in" in2="blur"/>
      <feComposite in="SourceGraphic"/>
    </filter>
    <filter id="Rectangle_11-2" x="0" y="26" width="734" height="107" filterUnits="userSpaceOnUse">
      <feOffset dy="3" input="SourceAlpha"/>
      <feGaussianBlur stdDeviation="10" result="blur-2"/>
      <feFlood flood-opacity="0.161"/>
      <feComposite operator="in" in2="blur-2"/>
      <feComposite in="SourceGraphic"/>
    </filter>
    <filter id="Rectangle_11-3" x="82" y="103" width="570" height="56" filterUnits="userSpaceOnUse">
      <feOffset dy="3" input="SourceAlpha"/>
      <feGaussianBlur stdDeviation="3" result="blur-3"/>
      <feFlood flood-opacity="0.161"/>
      <feComposite operator="in" in2="blur-3"/>
      <feComposite in="SourceGraphic"/>
    </filter>
  </defs>
  <g id="mail_list_demo" data-name="mail list demo" transform="translate(-8036 4314)">
    <g id="mail_list_item" data-name="mail list item" transform="translate(8127.426 -4308)">
      <g class="cls-14" transform="matrix(1, 0, 0, 1, -91.43, -6)">
        <g id="Rectangle_11-4" data-name="Rectangle 11" class="cls-1" transform="translate(91 6)">
          <rect class="cls-10" width="552" height="38" rx="5"/>
          <rect class="cls-11" x="0.1" y="0.1" width="551.8" height="37.8" rx="4.9"/>
        </g>
      </g>
      <g id="Rectangle_13" data-name="Rectangle 13" class="cls-2" transform="translate(5.574 11.001)">
        <rect class="cls-10" width="17" height="16" rx="5"/>
        <rect class="cls-11" x="0.5" y="0.5" width="16" height="15" rx="4.5"/>
      </g>
      <path id="Icon_feather-star" data-name="Icon feather-star" class="cls-3" d="M11.236,3l2.545,5.156,5.691.832L15.354,13l.971,5.667-5.09-2.677-5.09,2.677L7.118,13,3,8.988l5.691-.832Z" transform="translate(25.106 8.181)"/>
      <text id="Stone_John" data-name="Stone, John" class="cls-4" transform="translate(54.574 21.001)"><tspan x="0" y="0">Stone, John</tspan></text>
      <text id="Nunc_Lobortis_Mattis_-_" data-name="Nunc Lobortis Mattis  - " class="cls-5" transform="translate(145.574 21.001)"><tspan x="0" y="0" xml:space="preserve">Nunc Lobortis Mattis  -</tspan></text>
      <text id="nisi_est_sit_amet_facilisis_magna_etiam_tempor_." data-name="nisi est sit amet facilisis magna etiam tempor…." class="cls-6" transform="translate(255.574 19.001)"><tspan x="0" y="0">nisi est sit amet facilisis magna etiam tempor….</tspan></text>
      <g id="Icon_feather-clock" data-name="Icon feather-clock" transform="translate(482.754 12.6)">
        <path id="Path_11" data-name="Path 11" class="cls-3" d="M15.695,9.347A6.347,6.347,0,1,1,9.347,3a6.347,6.347,0,0,1,6.347,6.347Z" transform="translate(-3 -3)"/>
        <path id="Path_12" data-name="Path 12" class="cls-3" d="M18,9v3.808l2.539,1.267" transform="translate(-11.653 -6.461)"/>
      </g>
      <g id="Icon_feather-archive" data-name="Icon feather-archive" transform="translate(504.25 13.869)">
        <path id="Path_13" data-name="Path 13" class="cls-3" d="M15.925,12v8.251H4.5V12" transform="translate(-3.231 -8.826)"/>
        <path id="Path_14" data-name="Path 14" class="cls-3" d="M1.5,4.5H15.464V7.674H1.5Z" transform="translate(-1.5 -4.5)"/>
        <path id="Path_15" data-name="Path 15" class="cls-3" d="M15,18h2.539" transform="translate(-9.287 -12.287)"/>
      </g>
      <g id="Icon_feather-trash-2" data-name="Icon feather-trash-2" transform="translate(527.101 12.6)">
        <path id="Path_16" data-name="Path 16" class="cls-3" d="M4.5,9H15.925" transform="translate(-4.5 -6.461)"/>
        <path id="Path_17" data-name="Path 17" class="cls-3" d="M16.386,5.539v8.886a1.269,1.269,0,0,1-1.269,1.269H8.769A1.269,1.269,0,0,1,7.5,14.425V5.539m1.9,0V4.269A1.269,1.269,0,0,1,10.674,3h2.539a1.269,1.269,0,0,1,1.269,1.269V5.539" transform="translate(-6.231 -3)"/>
        <path id="Path_18" data-name="Path 18" class="cls-3" d="M15,16.5v3.808" transform="translate(-10.557 -10.787)"/>
        <path id="Path_19" data-name="Path 19" class="cls-3" d="M21,16.5v3.808" transform="translate(-14.018 -10.787)"/>
      </g>
    </g>
    <g id="mail_list_item-2" data-name="mail list item" transform="translate(8066 -4260.535)">
      <g class="cls-13" transform="matrix(1, 0, 0, 1, -30, -53.47)">
        <g id="Rectangle_11-5" data-name="Rectangle 11" class="cls-1" transform="translate(30 53)">
          <rect class="cls-10" width="674" height="47" rx="5"/>
          <rect class="cls-11" x="0.1" y="0.1" width="673.8" height="46.8" rx="4.9"/>
        </g>
      </g>
      <g id="Rectangle_13-2" data-name="Rectangle 13" class="cls-2" transform="translate(6.999 12.535)">
        <rect class="cls-10" width="20" height="21" rx="5"/>
        <rect class="cls-11" x="0.5" y="0.5" width="19" height="20" rx="4.5"/>
      </g>
      <path id="Icon_feather-star-2" data-name="Icon feather-star" class="cls-3" d="M13.077,3l3.114,6.308,6.963,1.018-5.038,4.906L19.3,22.166l-6.227-3.275L6.849,22.166l1.189-6.933L3,10.326,9.963,9.308Z" transform="translate(31.154 10.617)"/>
      <text id="Stone_John-2" data-name="Stone, John" class="cls-7" transform="translate(66 25.535)"><tspan x="0" y="0">Stone, John</tspan></text>
      <text id="Nunc_Lobortis_Mattis_-_2" data-name="Nunc Lobortis Mattis  - " class="cls-8" transform="translate(177 25.535)"><tspan x="0" y="0" xml:space="preserve">Nunc Lobortis Mattis  -</tspan></text>
      <text id="nisi_est_sit_amet_facilisis_magna_etiam_tempor_.-2" data-name="nisi est sit amet facilisis magna etiam tempor…." class="cls-9" transform="translate(313 23.535)"><tspan x="0" y="0">nisi est sit amet facilisis magna etiam tempor….</tspan></text>
      <g id="Icon_feather-clock-2" data-name="Icon feather-clock" transform="translate(590.418 15.354)">
        <path id="Path_11-2" data-name="Path 11" class="cls-3" d="M18.532,10.766A7.766,7.766,0,1,1,10.766,3a7.766,7.766,0,0,1,7.766,7.766Z" transform="translate(-3 -3)"/>
        <path id="Path_12-2" data-name="Path 12" class="cls-3" d="M18,9v4.66l3.106,1.55" transform="translate(-10.234 -5.894)"/>
      </g>
      <g id="Icon_feather-archive-2" data-name="Icon feather-archive" transform="translate(616.719 16.907)">
        <path id="Path_13-2" data-name="Path 13" class="cls-3" d="M18.479,12V22.1H4.5V12" transform="translate(-2.947 -8.117)"/>
        <path id="Path_14-2" data-name="Path 14" class="cls-3" d="M1.5,4.5H18.585V8.383H1.5Z" transform="translate(-1.5 -4.5)"/>
        <path id="Path_15-2" data-name="Path 15" class="cls-3" d="M15,18h3.106" transform="translate(-8.011 -11.011)"/>
      </g>
      <g id="Icon_feather-trash-2-2" data-name="Icon feather-trash-2" transform="translate(644.676 15.354)">
        <path id="Path_16-2" data-name="Path 16" class="cls-3" d="M4.5,9H18.479" transform="translate(-4.5 -5.894)"/>
        <path id="Path_17-2" data-name="Path 17" class="cls-3" d="M18.372,6.106V16.979a1.553,1.553,0,0,1-1.553,1.553H9.053A1.553,1.553,0,0,1,7.5,16.979V6.106m2.33,0V4.553A1.553,1.553,0,0,1,11.383,3h3.106a1.553,1.553,0,0,1,1.553,1.553V6.106" transform="translate(-5.947 -3)"/>
        <path id="Path_18-2" data-name="Path 18" class="cls-3" d="M15,16.5v4.66" transform="translate(-9.564 -9.511)"/>
        <path id="Path_19-2" data-name="Path 19" class="cls-3" d="M21,16.5v4.66" transform="translate(-12.457 -9.511)"/>
      </g>
    </g>
    <g id="mail_list_item-3" data-name="mail list item" transform="translate(8127.426 -4204.693)">
      <g class="cls-12" transform="matrix(1, 0, 0, 1, -91.43, -109.31)">
        <g id="Rectangle_11-6" data-name="Rectangle 11" class="cls-1" transform="translate(91 109)">
          <rect class="cls-10" width="552" height="38" rx="5"/>
          <rect class="cls-11" x="0.1" y="0.1" width="551.8" height="37.8" rx="4.9"/>
        </g>
      </g>
      <g id="Rectangle_13-3" data-name="Rectangle 13" class="cls-2" transform="translate(5.574 10.693)">
        <rect class="cls-10" width="17" height="16" rx="5"/>
        <rect class="cls-11" x="0.5" y="0.5" width="16" height="15" rx="4.5"/>
      </g>
      <path id="Icon_feather-star-3" data-name="Icon feather-star" class="cls-3" d="M11.236,3l2.545,5.156,5.691.832L15.354,13l.971,5.667-5.09-2.677-5.09,2.677L7.118,13,3,8.988l5.691-.832Z" transform="translate(25.106 8.156)"/>
      <text id="Stone_John-3" data-name="Stone, John" class="cls-4" transform="translate(54.574 20.693)"><tspan x="0" y="0">Stone, John</tspan></text>
      <text id="Nunc_Lobortis_Mattis_-_3" data-name="Nunc Lobortis Mattis  - " class="cls-5" transform="translate(145.574 20.693)"><tspan x="0" y="0" xml:space="preserve">Nunc Lobortis Mattis  -</tspan></text>
      <text id="nisi_est_sit_amet_facilisis_magna_etiam_tempor_.-3" data-name="nisi est sit amet facilisis magna etiam tempor…." class="cls-6" transform="translate(255.574 18.693)"><tspan x="0" y="0">nisi est sit amet facilisis magna etiam tempor….</tspan></text>
      <g id="Icon_feather-clock-3" data-name="Icon feather-clock" transform="translate(482.754 12.575)">
        <path id="Path_11-3" data-name="Path 11" class="cls-3" d="M15.695,9.347A6.347,6.347,0,1,1,9.347,3a6.347,6.347,0,0,1,6.347,6.347Z" transform="translate(-3 -3)"/>
        <path id="Path_12-3" data-name="Path 12" class="cls-3" d="M18,9v3.808l2.539,1.267" transform="translate(-11.653 -6.461)"/>
      </g>
      <g id="Icon_feather-archive-3" data-name="Icon feather-archive" transform="translate(504.25 13.844)">
        <path id="Path_13-3" data-name="Path 13" class="cls-3" d="M15.925,12v8.251H4.5V12" transform="translate(-3.231 -8.826)"/>
        <path id="Path_14-3" data-name="Path 14" class="cls-3" d="M1.5,4.5H15.464V7.674H1.5Z" transform="translate(-1.5 -4.5)"/>
        <path id="Path_15-3" data-name="Path 15" class="cls-3" d="M15,18h2.539" transform="translate(-9.287 -12.287)"/>
      </g>
      <g id="Icon_feather-trash-2-3" data-name="Icon feather-trash-2" transform="translate(527.101 12.575)">
        <path id="Path_16-3" data-name="Path 16" class="cls-3" d="M4.5,9H15.925" transform="translate(-4.5 -6.461)"/>
        <path id="Path_17-3" data-name="Path 17" class="cls-3" d="M16.386,5.539v8.886a1.269,1.269,0,0,1-1.269,1.269H8.769A1.269,1.269,0,0,1,7.5,14.425V5.539m1.9,0V4.269A1.269,1.269,0,0,1,10.674,3h2.539a1.269,1.269,0,0,1,1.269,1.269V5.539" transform="translate(-6.231 -3)"/>
        <path id="Path_18-3" data-name="Path 18" class="cls-3" d="M15,16.5v3.808" transform="translate(-10.557 -10.787)"/>
        <path id="Path_19-3" data-name="Path 19" class="cls-3" d="M21,16.5v3.808" transform="translate(-14.018 -10.787)"/>
      </g>
    </g>
  </g>
</svg>
