<svg xmlns="http://www.w3.org/2000/svg" xmlns:xlink="http://www.w3.org/1999/xlink" width="264" height="263.778" viewBox="0 0 264 263.778">
  <defs>
    <style>
      .cls-1 {
        fill: #d6e0f0;
        opacity: 0.7;
      }

      .cls-2 {
        opacity: 0.4;
        fill: url(#linear-gradient);
      }
    </style>
    <linearGradient id="linear-gradient" x1="0.5" y1="0.14" x2="0.5" y2="1" gradientUnits="objectBoundingBox">
      <stop offset="0" stop-color="#ef1abd"/>
      <stop offset="1" stop-color="#ff031c" stop-opacity="0.8"/>
      <stop offset="1" stop-color="#474a56"/>
    </linearGradient>
  </defs>
  <g id="rocket" transform="translate(-3.366 -3.372)">
    <path id="Path_88" data-name="Path 88" class="cls-1" d="M265.976,6.951a2.8,2.8,0,0,0-2.094-2.157C229.369-3.644,149.621,26.428,106.417,69.633a186.752,186.752,0,0,0-21,24.806c-13.323-1.205-26.646-.19-38,4.758C15.376,113.282,6.05,150.079,3.448,165.876a5.683,5.683,0,0,0,6.217,6.6l51.452-5.646a114.38,114.38,0,0,0,.7,11.61,11.515,11.515,0,0,0,3.362,7.042L85.1,205.4a11.515,11.515,0,0,0,7.042,3.362,114.161,114.161,0,0,0,11.547.7L98.042,260.85a5.683,5.683,0,0,0,6.6,6.217c15.8-2.538,52.658-11.864,66.679-43.9,4.949-11.356,5.964-24.616,4.822-37.875a187.049,187.049,0,0,0,24.87-21C244.405,121.149,274.287,43.177,265.976,6.951ZM162.437,108.4a27.1,27.1,0,1,1,38.32,0A27.072,27.072,0,0,1,162.437,108.4Z" transform="translate(0 0)"/>
    <path id="Path_89" data-name="Path 89" class="cls-2" d="M64.281,54.13h0c-2.665,2.665-7.423,4.187-12.562,5.075A17.077,17.077,0,0,1,32.052,39.538c.888-5.139,2.347-9.9,5.012-12.5l.063-.063a2.121,2.121,0,0,0-1.776-3.616,29.165,29.165,0,0,0-17.066,8.311c-11.42,11.42-12.5,53.8-12.5,53.8s42.443-1.079,53.863-12.5a28.972,28.972,0,0,0,8.311-17.066A2.171,2.171,0,0,0,64.281,54.13Z" transform="translate(19.423 160.216)"/>
  </g>
</svg>
