<svg xmlns="http://www.w3.org/2000/svg" xmlns:xlink="http://www.w3.org/1999/xlink" width="743" height="326" viewBox="0 0 743 326">
  <defs>
    <style>
      .cls-1, .cls-10, .cls-4, .cls-6, .cls-9 {
        fill: none;
      }

      .cls-2 {
        fill: #fff;
      }

      .cls-3 {
        fill: #f1f3f8;
      }

      .cls-10, .cls-4, .cls-6, .cls-9 {
        stroke: #8d93ab;
      }

      .cls-10, .cls-4, .cls-6 {
        stroke-linecap: round;
        stroke-linejoin: round;
      }

      .cls-4 {
        stroke-width: 3px;
      }

      .cls-13, .cls-5 {
        fill: rgba(57,59,68,0.5);
      }

      .cls-5 {
        font-size: 16px;
      }

      .cls-12, .cls-5 {
        font-family: Roboto-Medium, Roboto;
        font-weight: 500;
      }

      .cls-6 {
        stroke-width: 2px;
      }

      .cls-7 {
        clip-path: url(#clip-path);
      }

      .cls-8 {
        fill: rgba(241,243,248,0.5);
      }

      .cls-10 {
        stroke-width: 1.5px;
      }

      .cls-11, .cls-12 {
        fill: rgba(57,59,68,0.7);
        font-size: 11px;
      }

      .cls-11, .cls-12, .cls-13 {
        stroke: rgba(0,0,0,0);
      }

      .cls-11, .cls-13 {
        font-family: Roboto-Regular, Roboto;
      }

      .cls-13 {
        font-size: 9px;
      }

      .cls-14 {
        stroke: none;
      }

      .cls-15 {
        filter: url(#Rectangle_15);
      }
    </style>
    <filter id="Rectangle_15" x="0" y="0" width="743" height="326" filterUnits="userSpaceOnUse">
      <feOffset dy="3" input="SourceAlpha"/>
      <feGaussianBlur stdDeviation="15" result="blur"/>
      <feFlood flood-opacity="0.161"/>
      <feComposite operator="in" in2="blur"/>
      <feComposite in="SourceGraphic"/>
    </filter>
    <clipPath id="clip-path">
      <rect class="cls-1" width="626.328" height="160.515"/>
    </clipPath>
  </defs>
  <g id="searching_demo" data-name="searching demo" transform="translate(-2613 1775)">
    <g class="cls-15" transform="matrix(1, 0, 0, 1, 2613, -1775)">
      <rect id="Rectangle_15-2" data-name="Rectangle 15" class="cls-2" width="653" height="236" rx="5" transform="translate(45 42)"/>
    </g>
    <g id="search_bar" data-name="search bar" transform="translate(2349 -1773)">
      <rect id="Rectangle_6" data-name="Rectangle 6" class="cls-3" width="653" height="60" rx="5" transform="translate(309 40)"/>
      <g id="Icon_feather-search" data-name="Icon feather-search" transform="translate(314.5 50.5)">
        <path id="Path_6" data-name="Path 6" class="cls-4" d="M31.5,18A13.5,13.5,0,1,1,18,4.5,13.5,13.5,0,0,1,31.5,18Z"/>
        <path id="Path_7" data-name="Path 7" class="cls-4" d="M31.5,31.5l-6.525-6.525" transform="translate(3 3)"/>
      </g>
      <text id="Search_or_press_for_shortcuts" data-name="Search or press &quot;/&quot; for shortcuts" class="cls-5" transform="translate(369 77)"><tspan x="0" y="0">Search or press &quot;/&quot; for shortcuts</tspan></text>
      <g id="sliders" transform="translate(919 58)">
        <line id="Line_1" data-name="Line 1" class="cls-6" y1="7" transform="translate(4 14)"/>
        <line id="Line_2" data-name="Line 2" class="cls-6" y1="7" transform="translate(4 3)"/>
        <line id="Line_3" data-name="Line 3" class="cls-6" y1="9" transform="translate(12 12)"/>
        <line id="Line_4" data-name="Line 4" class="cls-6" y1="5" transform="translate(12 3)"/>
        <line id="Line_5" data-name="Line 5" class="cls-6" y1="5" transform="translate(20 16)"/>
        <line id="Line_6" data-name="Line 6" class="cls-6" y1="9" transform="translate(20 3)"/>
        <line id="Line_7" data-name="Line 7" class="cls-6" x2="6" transform="translate(1 14)"/>
        <line id="Line_8" data-name="Line 8" class="cls-6" x2="6" transform="translate(9 8)"/>
        <line id="Line_9" data-name="Line 9" class="cls-6" x2="6" transform="translate(17 16)"/>
      </g>
    </g>
    <path id="Rectangle_14" data-name="Rectangle 14" class="cls-2" d="M0,0H653a0,0,0,0,1,0,0V180a5,5,0,0,1-5,5H5a5,5,0,0,1-5-5V0A0,0,0,0,1,0,0Z" transform="translate(2658 -1682)"/>
    <g id="mail_list_item" data-name="mail list item" class="cls-7" transform="translate(2671 -1670)">
      <g id="mail_list_item-2" data-name="mail list item" transform="translate(0.363 -0.039)">
        <path id="Rectangle_11" data-name="Rectangle 11" class="cls-8" d="M2.191,0H624.136a2.191,2.191,0,0,1,2.192,2.191V40.323a2.191,2.191,0,0,1-2.192,2.191H2.191A2.191,2.191,0,0,1,0,40.323V2.191A2.191,2.191,0,0,1,2.191,0Z" transform="translate(-0.363 0.039)"/>
        <g id="Rectangle_13" data-name="Rectangle 13" class="cls-9" transform="translate(6.638 13.039)">
          <rect class="cls-14" width="18" height="17" rx="5"/>
          <rect class="cls-1" x="0.5" y="0.5" width="17" height="16" rx="4.5"/>
        </g>
        <path id="Icon_feather-star" data-name="Icon feather-star" class="cls-10" d="M12.354,3l2.891,5.856L21.71,9.8l-4.677,4.555,1.1,6.436-5.781-3.04-5.781,3.04,1.1-6.436L3,9.8l6.464-.945Z" transform="translate(28.538 9.643)"/>
        <text id="Stone_John" data-name="Stone, John" class="cls-11" transform="translate(60.638 26.039)"><tspan x="0" y="0">Stone, John</tspan></text>
        <text id="Nunc_Lobortis_Mattis_-_" data-name="Nunc Lobortis Mattis  - " class="cls-12" transform="translate(163.638 26.039)"><tspan x="0" y="0" xml:space="preserve">Nunc Lobortis Mattis  -</tspan></text>
        <text id="nisi_est_sit_amet_facilisis_magna_etiam_tempor_." data-name="nisi est sit amet facilisis magna etiam tempor…." class="cls-13" transform="translate(290.638 24.039)"><tspan x="0" y="0">nisi est sit amet facilisis magna etiam tempor….</tspan></text>
      </g>
      <g id="mail_list_item-3" data-name="mail list item" transform="translate(0.363 56.961)">
        <path id="Rectangle_11-2" data-name="Rectangle 11" class="cls-8" d="M2.191,0H624.136a2.191,2.191,0,0,1,2.192,2.191V40.323a2.191,2.191,0,0,1-2.192,2.191H2.191A2.191,2.191,0,0,1,0,40.323V2.191A2.191,2.191,0,0,1,2.191,0Z" transform="translate(-0.363 0.039)"/>
        <g id="Rectangle_13-2" data-name="Rectangle 13" class="cls-9" transform="translate(6.638 13.039)">
          <rect class="cls-14" width="18" height="17" rx="5"/>
          <rect class="cls-1" x="0.5" y="0.5" width="17" height="16" rx="4.5"/>
        </g>
        <path id="Icon_feather-star-2" data-name="Icon feather-star" class="cls-10" d="M12.354,3l2.891,5.856L21.71,9.8l-4.677,4.555,1.1,6.436-5.781-3.04-5.781,3.04,1.1-6.436L3,9.8l6.464-.945Z" transform="translate(28.538 9.643)"/>
        <text id="Stone_John-2" data-name="Stone, John" class="cls-11" transform="translate(60.638 26.039)"><tspan x="0" y="0">Stone, John</tspan></text>
        <text id="Nunc_Lobortis_Mattis_-_2" data-name="Nunc Lobortis Mattis  - " class="cls-12" transform="translate(163.638 26.039)"><tspan x="0" y="0" xml:space="preserve">Nunc Lobortis Mattis  -</tspan></text>
        <text id="nisi_est_sit_amet_facilisis_magna_etiam_tempor_.-2" data-name="nisi est sit amet facilisis magna etiam tempor…." class="cls-13" transform="translate(290.638 24.039)"><tspan x="0" y="0">nisi est sit amet facilisis magna etiam tempor….</tspan></text>
      </g>
      <g id="mail_list_item-4" data-name="mail list item" transform="translate(0.363 113.961)">
        <path id="Rectangle_11-3" data-name="Rectangle 11" class="cls-8" d="M2.191,0H624.136a2.191,2.191,0,0,1,2.192,2.191V40.323a2.191,2.191,0,0,1-2.192,2.191H2.191A2.191,2.191,0,0,1,0,40.323V2.191A2.191,2.191,0,0,1,2.191,0Z" transform="translate(-0.363 0.039)"/>
        <g id="Rectangle_13-3" data-name="Rectangle 13" class="cls-9" transform="translate(6.638 13.039)">
          <rect class="cls-14" width="18" height="17" rx="5"/>
          <rect class="cls-1" x="0.5" y="0.5" width="17" height="16" rx="4.5"/>
        </g>
        <path id="Icon_feather-star-3" data-name="Icon feather-star" class="cls-10" d="M12.354,3l2.891,5.856L21.71,9.8l-4.677,4.555,1.1,6.436-5.781-3.04-5.781,3.04,1.1-6.436L3,9.8l6.464-.945Z" transform="translate(28.538 9.643)"/>
        <text id="Stone_John-3" data-name="Stone, John" class="cls-11" transform="translate(60.638 26.039)"><tspan x="0" y="0">Stone, John</tspan></text>
        <text id="Nunc_Lobortis_Mattis_-_3" data-name="Nunc Lobortis Mattis  - " class="cls-12" transform="translate(163.638 26.039)"><tspan x="0" y="0" xml:space="preserve">Nunc Lobortis Mattis  -</tspan></text>
        <text id="nisi_est_sit_amet_facilisis_magna_etiam_tempor_.-3" data-name="nisi est sit amet facilisis magna etiam tempor…." class="cls-13" transform="translate(290.638 24.039)"><tspan x="0" y="0">nisi est sit amet facilisis magna etiam tempor….</tspan></text>
      </g>
    </g>
  </g>
</svg>
