<?xml version="1.0" encoding="utf-8"?>
<!-- Generator: Adobe Illustrator 19.0.0, SVG Export Plug-In . SVG Version: 6.00 Build 0)  -->
<svg version="1.1" id="Layer_1" xmlns="http://www.w3.org/2000/svg" xmlns:xlink="http://www.w3.org/1999/xlink" x="0px" y="0px"
	 viewBox="0 0 500 500" style="enable-background:new 0 0 500 500;" xml:space="preserve">
<g id="layer1" transform="translate(-345.72101,-518.64656)">
	<path id="path984" d="M589.9,754.1c-1.3-9.4-10.3-16.5-20.6-16.5c-18.6,0-25.6,15.8-25.6,32.3c0,15.7,7,31.6,25.6,31.6
		c12.7,0,19.8-8.7,21.4-21.1h20.1c-2.1,23.5-18.4,38.6-41.5,38.6c-29.2,0-46.3-21.8-46.3-49c0-28,17.2-49.8,46.3-49.8
		c20.7,0,38.1,12.1,40.7,33.9L589.9,754.1L589.9,754.1z"/>
	<path id="path988" d="M617,722.4h44.4c18,0,30.1,5.8,30.1,23.4c0,9.2-4.6,15.7-12.8,19.7c11.5,3.3,17.3,12.1,17.3,23.9
		c0,19.2-16.2,27.3-33.3,27.3H617V722.4L617,722.4z M637.7,760.6h21c7.3,0,12.7-3.3,12.7-11.2c0-9-6.9-10.8-14.3-10.8h-19.4V760.6
		L637.7,760.6z M637.7,800.6h22.2c8.2,0,15.3-2.6,15.3-12.4c0-9.6-6.1-13.5-14.9-13.5h-22.6L637.7,800.6L637.7,800.6z"/>
	<path id="path992" d="M721.4,785.4c0,12.5,9.8,17.4,20.9,17.4c7.3,0,18.3-2.1,18.3-11.7c0-10.2-14.1-11.9-28-15.6
		c-14-3.7-28.1-9.1-28.1-26.8c0-19.3,18.2-28.5,35.2-28.5c19.7,0,37.8,8.6,37.8,30.4h-20.1c-0.7-11.3-8.7-14.3-18.6-14.3
		c-6.6,0-14.3,2.8-14.3,10.7c0,7.3,4.5,8.2,28.1,14.3c6.9,1.7,28,6.1,28,27.5c0,17.3-13.6,30.2-39.2,30.2
		c-20.9,0-40.4-10.3-40.1-33.5L721.4,785.4L721.4,785.4z"/>
	<path id="path996" d="M410.7,768.6c0-28.1,22.7-50.8,50.8-50.8c28.1,0,50.8,22.7,50.8,50.8c0,28.1-22.7,50.8-50.8,50.8
		C433.5,819.5,410.7,796.7,410.7,768.6 M509.2,768.6c-7.7-16.8-25.6-30.3-47.7-30.3c-22.2,0-40,13.5-47.7,30.3
		c7.7,16.8,25.6,30.3,47.7,30.3C483.7,798.9,501.5,785.4,509.2,768.6"/>
	<path id="path1000" d="M434.3,768.4c0-14.9,12-26.9,26.9-26.9c14.9,0,26.9,12.1,26.9,26.9c0,14.9-12.1,26.9-26.9,26.9
		C446.4,795.3,434.3,783.2,434.3,768.4"/>
</g>
</svg>
