<svg id="google-icon" xmlns="http://www.w3.org/2000/svg" width="48.047" height="49.027" viewBox="0 0 48.047 49.027">
  <defs>
    <style>
      .cls-1 {
        fill: #4285f4;
      }

      .cls-2 {
        fill: #34a853;
      }

      .cls-3 {
        fill: #fbbc05;
      }

      .cls-4 {
        fill: #eb4335;
      }
    </style>
  </defs>
  <path id="Path_16" data-name="Path 16" class="cls-1" d="M154.083,111.773a21.007,21.007,0,0,0-.517-5.012H130.55v9.1h13.51a11.98,11.98,0,0,1-5.012,7.953l-.046.3,7.277,5.637.5.05c4.63-4.276,7.3-10.568,7.3-18.031" transform="translate(-106.036 -86.714)"/>
  <path id="Path_17" data-name="Path 17" class="cls-2" d="M35.824,176.035A23.365,23.365,0,0,0,52.057,170.1l-7.735-5.992a14.508,14.508,0,0,1-8.5,2.451A14.757,14.757,0,0,1,21.878,156.37l-.287.024-7.567,5.856-.1.275a24.5,24.5,0,0,0,21.9,13.51" transform="translate(-11.31 -127.008)"/>
  <path id="Path_18" data-name="Path 18" class="cls-3" d="M10.568,87.283a15.091,15.091,0,0,1-.817-4.848,15.858,15.858,0,0,1,.79-4.848l-.014-.325-7.662-5.95-.251.119a24.462,24.462,0,0,0,0,22.008l7.953-6.156" transform="translate(0 -57.922)"/>
  <path id="Path_19" data-name="Path 19" class="cls-4" d="M35.824,9.479a13.586,13.586,0,0,1,9.479,3.65l6.918-6.755A23.552,23.552,0,0,0,35.824,0a24.5,24.5,0,0,0-21.9,13.51l7.926,6.156A14.818,14.818,0,0,1,35.824,9.479" transform="translate(-11.31)"/>
</svg>
