<svg xmlns="http://www.w3.org/2000/svg" width="25" height="25" viewBox="0 0 25 25">
  <defs>
    <style>
      .cls-1 {
        fill: none;
      }

      .cls-2, .cls-3 {
        stroke: none;
      }
    </style>
  </defs>
  <g id="Group_1" data-name="Group 1" transform="translate(-467 -198)">
    <g id="Path_12" data-name="Path 12" class="cls-1" transform="translate(467 198)">
      <path class="cls-2" d="M5,0a5,5,0,0,1,5,5A5.141,5.141,0,0,1,8.055,8.958,4.769,4.769,0,0,1,5,10,5.167,5.167,0,0,1,1.49,8.561,4.816,4.816,0,0,1,0,5,5.166,5.166,0,0,1,1.456,1.473,4.814,4.814,0,0,1,5,0Z"/>
      <path class="cls-3" d="M 5 2 C 4.109449863433838 2 3.304520130157471 2.392469882965088 2.969679832458496 2.780159950256348 L 2.959640026092529 2.791790008544922 L 2.949419975280762 2.80325984954834 C 2.098420143127441 3.758500099182129 2 4.514470100402832 2 5 C 2 5.896009922027588 2.397580146789551 6.705120086669922 2.790319919586182 7.04127025604248 L 2.801909923553467 7.05118989944458 L 2.813340187072754 7.061280250549316 C 3.766570091247559 7.902689933776855 4.517829895019531 8 5 8 C 5.827600002288818 8 6.482219696044922 7.682450294494629 6.720310211181641 7.468999862670898 L 6.732769966125488 7.457839965820313 L 6.745409965515137 7.446880340576172 C 7.589620113372803 6.715149879455566 8 5.914770126342773 8 5 C 8 3.345789909362793 6.654210090637207 2 5 2 M 5 0 C 7.761420249938965 0 10 2.238580226898193 10 5 C 10 6.49944019317627 9.339969635009766 7.844729900360107 8.055350303649902 8.958189964294434 C 7.414760112762451 9.532469749450684 6.261980056762695 10 5 10 C 3.743559837341309 10 2.595359802246094 9.53656005859375 1.489809989929199 8.560700416564941 C 0.6649198532104492 7.854660034179688 0 6.504980087280273 0 5 C 0 3.735270023345947 0.4695701599121094 2.580220222473145 1.456069946289063 1.472880363464355 C 2.160200119018555 0.6576204299926758 3.503300189971924 0 5 0 Z"/>
    </g>
    <g id="Path_13" data-name="Path 13" class="cls-1" transform="translate(482 198)">
      <path class="cls-2" d="M5,0A5.141,5.141,0,0,1,8.958,1.945,4.769,4.769,0,0,1,10,5,5.148,5.148,0,0,1,8.172,8.865,4.778,4.778,0,0,1,5,10,5.151,5.151,0,0,1,1.185,8.232,4.784,4.784,0,0,1,0,5,5,5,0,0,1,5,0Z"/>
      <path class="cls-3" d="M 5 2 C 3.345789909362793 2 2 3.345789909362793 2 5 C 2 5.885700225830078 2.366079807281494 6.580220222473145 2.612150192260742 6.830949783325195 L 2.623660087585449 6.842679977416992 L 2.634970188140869 6.854599952697754 C 3.377059936523438 7.636039733886719 4.128560066223145 8 5 8 C 5.866209983825684 8 6.546669960021973 7.651309967041016 6.792710304260254 7.416939735412598 L 6.804840087890625 7.405389785766602 L 6.817159652709961 7.394040107727051 C 7.613090038299561 6.660880088806152 8 5.877789974212646 8 5 C 8 4.172399997711182 7.682450294494629 3.51777982711792 7.468999862670898 3.279689788818359 L 7.457839965820313 3.267230033874512 L 7.446880340576172 3.254590034484863 C 6.715149879455566 2.410379886627197 5.914770126342773 2 5 2 M 5 0 C 6.49944019317627 0 7.844729900360107 0.6600303649902344 8.958189964294434 1.944649696350098 C 9.532469749450684 2.585239887237549 10 3.738019943237305 10 5 C 10 6.444220066070557 9.387689590454102 7.745419979095459 8.17216968536377 8.865070343017578 C 7.515450000762939 9.490650177001953 6.31721019744873 10 5 10 C 3.583399772644043 10 2.304389953613281 9.410880088806152 1.184709548950195 8.231820106506348 C 0.5309295654296875 7.565639972686768 0 6.344820022583008 0 5 C 0 2.238580226898193 2.238580226898193 0 5 0 Z"/>
    </g>
    <g id="Path_14" data-name="Path 14" class="cls-1" transform="translate(467 213)">
      <path class="cls-2" d="M5,0A5.141,5.141,0,0,1,8.958,1.945,4.769,4.769,0,0,1,10,5a5,5,0,0,1-5,5A5.148,5.148,0,0,1,1.12,8.154,4.776,4.776,0,0,1,0,5,5.169,5.169,0,0,1,1.448,1.481,4.813,4.813,0,0,1,5,0Z"/>
      <path class="cls-3" d="M 5 2 C 4.000699996948242 2 3.236020088195801 2.468480110168457 2.965839862823486 2.783370018005371 L 2.955589771270752 2.7953200340271 L 2.945149898529053 2.807109832763672 C 2.291500091552734 3.54511022567749 2 4.221419811248779 2 5 C 2 5.860380172729492 2.343309879302979 6.536290168762207 2.574069976806641 6.78069019317627 L 2.58568000793457 6.792980194091797 L 2.597070217132568 6.805469989776611 C 3.330699920654297 7.609270095825195 4.116700172424316 8 5 8 C 6.654210090637207 8 8 6.654210090637207 8 5 C 8 4.172399997711182 7.682450294494629 3.51777982711792 7.468999862670898 3.279689788818359 L 7.457839965820313 3.267230033874512 L 7.446880340576172 3.254590034484863 C 6.715149879455566 2.410379886627197 5.914770126342773 2 5 2 M 5 0 C 6.49944019317627 0 7.844729900360107 0.6600303649902344 8.958189964294434 1.944649696350098 C 9.532469749450684 2.585239887237549 10 3.738019943237305 10 5 C 10 7.761420249938965 7.761420249938965 10 5 10 C 3.547500133514404 10 2.239659786224365 9.380649566650391 1.119850158691406 8.153730392456055 C 0.502960205078125 7.500370025634766 0 6.308919906616211 0 5 C 0 3.740799903869629 0.465479850769043 2.590310096740723 1.447970390319824 1.481040000915527 C 2.150290012359619 0.662480354309082 3.497779846191406 0 5 0 Z"/>
    </g>
    <g id="Path_15" data-name="Path 15" class="cls-1" transform="translate(482 213)">
      <path class="cls-2" d="M5,0A5.125,5.125,0,0,1,9.317,2.476,4.707,4.707,0,0,1,10,5,5.171,5.171,0,0,1,8.556,8.515,4.813,4.813,0,0,1,5,10,5.147,5.147,0,0,1,1.121,8.156,4.777,4.777,0,0,1,0,5,5.169,5.169,0,0,1,1.447,1.482,4.814,4.814,0,0,1,5,0Z"/>
      <path class="cls-3" d="M 5 2 C 4.000699996948242 2 3.235620021820068 2.468880176544189 2.965179920196533 2.784049987792969 L 2.95497989654541 2.795929908752441 L 2.944610118865967 2.807640075683594 C 2.291329860687256 3.545269966125488 2 4.221419811248779 2 5 C 2 5.860390186309814 2.344419956207275 6.537620067596436 2.575920104980469 6.782910346984863 L 2.587319850921631 6.795000076293945 L 2.598529815673828 6.807270050048828 C 3.331170082092285 7.609859943389893 4.116700172424316 8 5 8 C 6.001329898834229 8 6.766429901123047 7.530360221862793 7.036399841308594 7.214690208435059 L 7.046730041503906 7.202610015869141 L 7.057250022888184 7.190700054168701 C 7.709239959716797 6.452400207519531 8 5.776770114898682 8 5 C 8 4.31535005569458 7.777190208435059 3.764649868011475 7.675549983978271 3.618549823760986 L 7.663949966430664 3.601880073547363 L 7.652699947357178 3.584969997406006 C 7.17117977142334 2.861909866333008 6.320090293884277 2 5 2 M 5 0 C 6.728640079498291 0 8.252389907836914 0.8772296905517578 9.317350387573242 2.476399898529053 C 9.686869621276855 3.007569789886475 10 3.967219829559326 10 5 C 10 6.256440162658691 9.53656005859375 7.404640197753906 8.556360244750977 8.514579772949219 C 7.854660034179688 9.335080146789551 6.504980087280273 10 5 10 C 3.547500133514404 10 2.239659786224365 9.380649566650391 1.121419906616211 8.155659675598145 C 0.502960205078125 7.500370025634766 0 6.308919906616211 0 5 C 0 3.740799903869629 0.465479850769043 2.590310096740723 1.447380065917969 1.481630325317383 C 2.150290012359619 0.662480354309082 3.497779846191406 0 5 0 Z"/>
    </g>
  </g>
</svg>
