<svg xmlns="http://www.w3.org/2000/svg" width="203" height="50.75" viewBox="0 0 203 50.75">
  <g id="_logo" data-name=" logo" transform="translate(-805 -535)">
    <path id="hamburger-solid" d="M52.563,57.375H5.438a5.438,5.438,0,1,0,0,10.875H52.563a5.438,5.438,0,0,0,0-10.875Zm1.812,14.5H3.625a1.813,1.813,0,0,0-1.812,1.813V75.5a7.25,7.25,0,0,0,7.25,7.25H48.938a7.25,7.25,0,0,0,7.25-7.25V73.688A1.813,1.813,0,0,0,54.375,71.875ZM6.643,53.75H51.357c3.916,0,6.187-4.973,3.944-8.6C50.75,37.8,40.73,32.011,29,32c-11.729.011-21.75,5.8-26.3,13.153C.453,48.776,2.727,53.75,6.643,53.75ZM43.5,41.063a1.813,1.813,0,1,1-1.812,1.813A1.813,1.813,0,0,1,43.5,41.063ZM29,37.438a1.813,1.813,0,1,1-1.812,1.813A1.813,1.813,0,0,1,29,37.438ZM14.5,41.063a1.813,1.813,0,1,1-1.812,1.813A1.813,1.813,0,0,1,14.5,41.063Z" transform="translate(805 503)" fill="#222831"/>
    <text id="Mr._Burger" data-name="Mr. Burger" transform="translate(868 570)" fill="#222831" font-size="25" font-family="SegoePrint, Segoe Print"><tspan x="0" y="0">Mr. Burger</tspan></text>
  </g>
</svg>
